<svg width="20" height="20" viewBox="0 0 20 20" fill="none" xmlns="http://www.w3.org/2000/svg">
<g clip-path="url(#clip0_1590_627)">
<path d="M7.08328 11.8751C7.08328 13.4751 8.39995 14.7917 9.99995 14.7917C11.6 14.7917 12.9166 13.4751 12.9166 11.8751M7.34162 1.66675L4.32495 4.69175M12.6583 1.66675L15.675 4.69175" stroke="#00A2E4" stroke-width="1.5" stroke-miterlimit="10" stroke-linecap="round" stroke-linejoin="round"/>
<path d="M1.66675 6.54167C1.66675 5 2.49175 4.875 3.51675 4.875H16.4834C17.5084 4.875 18.3334 5 18.3334 6.54167C18.3334 8.33333 17.5084 8.20833 16.4834 8.20833H3.51675C2.49175 8.20833 1.66675 8.33333 1.66675 6.54167Z" stroke="#00A2E4" stroke-width="1.5"/>
<path d="M2.91675 8.33325L4.09175 15.5333C4.35841 17.1499 5.00008 18.3333 7.38341 18.3333H12.4084C15.0001 18.3333 15.3834 17.1999 15.6834 15.6333L17.0834 8.33325" stroke="#00A2E4" stroke-width="1.5" stroke-linecap="round"/>
</g>
<defs>
<clipPath id="clip0_1590_627">
<rect width="20" height="20" fill="white"/>
</clipPath>
</defs>
</svg>
